<?xml version="1.0" standalone="no"?>
<!DOCTYPE svg PUBLIC "-//W3C//DTD SVG 20010904//EN"
 "http://www.w3.org/TR/2001/REC-SVG-20010904/DTD/svg10.dtd">
<svg version="1.0" xmlns="http://www.w3.org/2000/svg"
 width="1280.000000pt" height="1227.000000pt" viewBox="0 0 1280.000000 1227.000000"
 preserveAspectRatio="xMidYMid meet">
<metadata>
Created by potrace 1.15, written by Peter Selinger 2001-2017
</metadata>
<g transform="translate(0.000000,1227.000000) scale(0.100000,-0.100000)"
fill="#000000" stroke="none">
<path d="M3468 12250 c-33 -18 -44 -18 -126 -8 -108 13 -238 0 -310 -32 -26
-12 -89 -30 -140 -40 -175 -35 -249 -86 -359 -244 -31 -44 -71 -98 -90 -119
-18 -21 -47 -60 -64 -87 -39 -64 -58 -76 -209 -139 -183 -77 -259 -112 -270
-126 -19 -22 2 -46 69 -80 80 -40 140 -58 286 -85 61 -12 118 -23 128 -26 16
-5 17 -25 17 -240 0 -234 0 -235 -21 -229 -12 4 -86 38 -165 75 l-144 69 0
-37 c0 -20 9 -158 20 -307 11 -148 20 -278 20 -287 0 -10 -174 -164 -435 -384
l-434 -368 -6 -56 c-13 -113 -47 -289 -80 -415 -33 -123 -67 -229 -250 -764
-101 -298 -157 -514 -159 -611 -1 -70 2 -80 34 -134 48 -80 172 -203 383 -379
97 -81 183 -157 191 -170 46 -71 84 -474 107 -1122 15 -424 7 -748 -21 -910
-43 -249 -129 -603 -306 -1260 -58 -214 -136 -509 -174 -655 -38 -146 -86
-317 -108 -380 -90 -257 -320 -781 -548 -1249 -74 -151 -134 -275 -134 -277 0
-1 23 -7 51 -14 l51 -12 -7 -62 c-10 -84 -47 -206 -95 -318 -97 -221 -134
-318 -151 -403 -19 -91 -24 -190 -13 -258 l7 -37 1085 2 1085 3 19 55 c71 207
92 400 54 509 -25 72 -84 131 -155 154 -91 29 -147 23 -315 -35 -143 -49 -156
-52 -251 -52 -116 1 -165 15 -232 70 -50 41 -53 61 -17 95 29 26 74 113 74
142 0 15 13 11 85 -28 62 -34 86 -43 90 -33 2 7 55 175 116 373 351 1138 464
1487 722 2220 191 544 338 959 341 962 2 3 205 -251 329 -413 255 -333 451
-624 557 -828 65 -125 78 -159 125 -336 65 -249 230 -780 457 -1475 71 -220
141 -436 156 -480 14 -44 26 -81 27 -83 2 -2 41 7 89 19 48 12 88 20 90 18 3
-4 67 -889 66 -916 0 -10 81 -13 371 -13 l370 0 92 39 c374 159 908 358 1126
421 l94 26 15 45 c9 27 14 87 15 159 0 102 -3 123 -27 185 -35 91 -75 151
-139 212 -97 92 -155 93 -353 10 -177 -74 -248 -92 -366 -92 l-97 0 -38 37
c-21 21 -63 76 -93 124 l-54 87 46 42 46 41 -98 230 c-99 232 -263 617 -652
1534 -201 473 -222 529 -336 885 -179 563 -294 938 -352 1140 -67 236 -101
341 -227 695 -179 502 -212 599 -268 781 -98 321 -149 563 -162 773 l-6 110
39 -23 c177 -106 294 -151 410 -158 123 -8 130 -5 171 84 43 93 116 292 223
613 l83 245 78 80 c90 91 145 168 194 270 34 70 85 231 85 266 0 11 4 19 9 19
5 0 144 -55 309 -123 l301 -123 121 -132 c133 -144 139 -148 210 -112 l39 20
24 -33 c18 -24 1403 -2073 1724 -2550 186 -276 675 -510 1323 -631 349 -65
631 -89 1050 -90 516 0 915 41 1362 140 595 131 1060 343 1313 598 156 158
208 263 209 426 1 116 -16 172 -85 275 -96 143 -255 266 -489 379 -149 71
-159 75 -840 304 -261 89 -774 263 -1140 387 -366 125 -966 330 -1335 455
-1573 536 -2014 686 -2435 830 -418 143 -446 154 -465 183 l-21 32 -194 0
c-169 0 -202 3 -248 19 -40 15 -51 24 -47 37 7 21 -20 39 -104 69 -57 21 -65
22 -75 8 -10 -14 -43 -3 -273 90 l-261 107 -31 76 c-33 81 -94 160 -142 184
-36 19 -92 19 -128 1 -15 -8 -44 -33 -64 -55 l-36 -40 -123 49 c-135 55 -179
60 -243 31 -61 -28 -102 -76 -135 -163 -34 -88 -36 -117 -15 -179 28 -79 71
-110 243 -178 45 -19 82 -37 82 -41 0 -5 -14 -46 -31 -92 -17 -46 -83 -229
-146 -408 -63 -179 -117 -328 -121 -332 -13 -13 -137 36 -189 75 -115 84 -185
227 -219 447 -8 52 -17 190 -21 306 -5 175 -4 212 8 220 8 5 78 10 157 12 111
3 145 7 149 18 6 17 -28 63 -121 164 -142 153 -174 198 -208 294 -18 50 -69
164 -113 253 l-81 163 59 57 c150 147 304 355 383 519 25 52 48 94 51 94 28 0
194 -63 253 -96 170 -96 290 -140 290 -107 0 4 -49 100 -109 213 l-108 205 18
46 c16 43 16 51 1 144 -13 83 -14 114 -4 206 10 90 10 114 -1 141 -25 60 -134
192 -248 303 -84 81 -113 116 -116 137 -6 58 -60 126 -116 147 -43 17 -98 13
-139 -9z"/>
</g>
</svg>
